<?xml version="1.0" encoding="UTF-8"?><svg xmlns="http://www.w3.org/2000/svg" viewBox="0 0 264.75 264.74"><defs><style>.d{fill:#ffc28a;}.e{fill:#f58840;}.f{fill:none;stroke:#f58840;stroke-miterlimit:10;stroke-width:10px;}</style></defs><g id="a"/><g id="b"><g id="c"><path class="f" d="M61.45,255.58v4.16H26.98c-12.14,0-21.98-9.84-21.98-21.98v-34.46h4.2v34.82c0,9.64,7.82,17.46,17.46,17.46H61.45Z"/><path class="f" d="M9.16,61.45H5V26.98C5,14.85,14.84,5,26.98,5H61.45v4.2H26.62c-9.64,0-17.46,7.82-17.46,17.46V61.45Z"/><path class="f" d="M203.3,9.16V5h34.46c12.14,0,21.98,9.84,21.98,21.98V61.45h-4.2V26.62c0-9.64-7.82-17.46-17.46-17.46h-34.78Z"/><path class="f" d="M255.58,203.3h4.16v34.46c0,12.14-9.84,21.98-21.98,21.98h-34.46v-4.2h34.82c9.64,0,17.46-7.82,17.46-17.46v-34.78Z"/><path class="e" d="M73.39,144.45c-.04,.87-.08,1.54-.1,1.89"/><path class="e" d="M115.74,146.6v.54c0-1.1-.06-2.28-.21-3.43,.01,.04,.02,.07,.02,.11,.13,.92,.19,1.84,.19,2.78Z"/><path class="e" d="M125.85,217.03c-1.48-.1-2.94-.27-4.38-.5,1.45,.21,2.91,.38,4.38,.5Z"/><path class="e" d="M190.77,160.82c0,2.97-.13,5.85-.39,8.62,.01,.23,.01,.46,.01,.69,0,6.17-1.47,12.07-4.15,17.47-7.44,18.81-24.18,29.6-50.91,29.6h-.23c-.84,0-1.67-.02-2.48-.06-.81,.04-1.63,.06-2.45,.06-1.09,0-2.18-.03-3.25-.1-.35-.02-.71-.04-1.07-.07-1.47-.12-2.93-.29-4.38-.5-.3-.04-.6-.08-.9-.14-26.95-4.22-47.29-23.32-47.29-46.26,0-.74,.02-1.48,.07-2.22-.02-.17-.05-.34-.07-.51v-20.8s.01-.09,.01-.26c.02-.35,.06-1.02,.1-1.89,.1-2.03,.22-5.1,.22-7.31,0-3.6,.62-10.2,1.61-11.74,1.42-2.2,4.04-2.22,7.83,1.5,3.14,3.08,3.09-3.26,4.21-7.52,1.12-4.25,2.01-17.52,8.6-17.52,3.52,0,4.33,6.67,4.79,12.61,.22,2.71,.43,6.26,.67,9.62,.14,1.99,1.64,3.5,3.57,4.03,.07,.02,.13,.04,.18,.07,1.64,.93,3.14,2.08,4.46,3.4,2.59,2.6,4.51,5.88,5.47,9.53,0,.02,0,.05,.02,.07t.01,.02c.05,.22,.12,.45,.17,.67,.02,.06,.03,.12,.04,.18,.06,.27,.11,.54,.16,.81h0c.05,.28,.09,.56,.13,.84,.15,1.15,.21,2.33,.21,3.43v16.27c1.13,6.85,7.07,12.08,14.24,12.08h.37c4.99,0,9.38-2.53,11.97-6.37h.01c.97-2.58,1.41-5.55,1.41-8.8V43.34h16.59c11.95,0,21.9,4.73,26.92,13.29,2.26,3.85,3.52,8.46,3.52,13.78v90.41Z"/><path class="d" d="M135.1,217.2c-1.08,.05-2.17,.07-3.26,.07-1.66,0-3.3-.06-4.92-.17,1.07,.07,2.16,.1,3.25,.1,.82,0,1.64-.02,2.45-.06,.81,.04,1.64,.06,2.48,.06Z"/><circle class="e" cx="81.65" cy="112.13" r="1.29"/><ellipse class="e" cx="82.56" cy="103.56" rx="2.64" ry="3.93"/><ellipse class="e" cx="112.2" cy="95.18" rx="5.87" ry="10.22"/></g></g></svg>